<svg xmlns="http://www.w3.org/2000/svg" xmlns:xlink="http://www.w3.org/1999/xlink" viewBox="0 0 79 11"><path d="M 9.022 9.724 L 9.185 10.267 C 9.185 10.267 5.729 10.223 2.835 10.223 C 2.023 10.223 0.694 10.252 0.281 10.267 L 0.281 10.135 C 2.008 10.061 2.082 9.739 2.082 9.475 L 2.082 0.939 C 2.082 0.675 2.008 0.352 0.281 0.279 L 0.281 0.147 C 0.694 0.161 2.023 0.191 2.835 0.191 C 5.582 0.191 8.712 0.132 8.712 0.132 L 8.52 0.733 L 9.613 2.889 L 9.539 2.963 C 8.343 0.924 6.379 0.337 3.514 0.337 L 3.514 5.104 L 3.987 5.104 C 5.774 5.104 6.276 4.429 6.571 3.065 L 6.689 3.065 C 6.571 3.667 6.468 4.415 6.468 5.177 C 6.468 5.925 6.571 6.688 6.689 7.289 L 6.571 7.289 C 6.276 5.925 5.774 5.251 3.987 5.251 L 3.514 5.251 L 3.514 10.076 C 6.896 10.047 8.919 9.328 10.263 7.245 L 10.336 7.333 Z M 20.547 0.191 L 23.826 0.147 L 23.826 0.279 C 22.098 0.352 22.024 0.675 22.024 0.939 L 22.024 9.475 C 22.024 9.739 22.098 10.061 23.826 10.135 L 23.826 10.267 C 23.323 10.252 22.083 10.223 21.3 10.223 C 20.533 10.223 19.277 10.252 18.79 10.267 L 18.79 10.135 C 20.518 10.061 20.592 9.739 20.592 9.475 L 20.592 0.66 L 16.59 10.428 L 16.56 10.428 L 12.47 0.821 L 12.47 9.049 C 12.47 9.724 12.603 10.061 14.346 10.135 L 14.346 10.267 C 13.947 10.252 13.061 10.223 12.337 10.223 C 11.629 10.223 10.787 10.252 10.388 10.267 L 10.388 10.135 C 12.131 10.061 12.249 9.724 12.249 9.049 L 12.249 0.939 C 12.249 0.675 12.175 0.352 10.447 0.279 L 10.447 0.147 L 13.74 0.191 L 17.166 8.404 Z M 33.133 9.724 L 33.295 10.267 C 33.295 10.267 29.84 10.223 26.946 10.223 C 26.133 10.223 24.805 10.252 24.391 10.267 L 24.391 10.135 C 26.119 10.061 26.193 9.739 26.193 9.475 L 26.193 0.939 C 26.193 0.675 26.119 0.352 24.391 0.279 L 24.391 0.147 C 24.805 0.161 26.133 0.191 26.946 0.191 C 29.692 0.191 32.823 0.132 32.823 0.132 L 32.631 0.733 L 33.723 2.889 L 33.65 2.963 C 32.453 0.924 30.49 0.337 27.625 0.337 L 27.625 5.104 L 28.097 5.104 C 29.884 5.104 30.386 4.429 30.682 3.065 L 30.8 3.065 C 30.682 3.667 30.578 4.415 30.578 5.177 C 30.578 5.925 30.682 6.688 30.8 7.289 L 30.682 7.289 C 30.386 5.925 29.884 5.251 28.097 5.251 L 27.625 5.251 L 27.625 10.076 C 31.006 10.047 33.029 9.328 34.373 7.245 L 34.447 7.333 Z M 42.325 10.267 C 41.262 9.372 39.859 7.245 39.091 5.691 C 38.648 5.632 38.19 5.529 37.851 5.339 L 37.851 9.475 C 37.851 9.739 37.924 10.061 39.903 10.135 L 39.903 10.267 C 39.431 10.252 37.895 10.223 37.127 10.223 C 36.374 10.223 35.045 10.252 34.558 10.267 L 34.558 10.135 C 36.285 10.061 36.418 9.739 36.418 9.475 L 36.418 0.939 C 36.418 0.675 36.285 0.352 34.558 0.279 L 34.558 0.147 C 34.971 0.161 36.359 0.191 37.098 0.191 C 37.747 0.191 38.5 0.147 38.943 0.147 C 41.38 0.147 43.137 1.041 43.137 2.889 C 43.137 4.561 41.69 5.456 40.435 5.676 C 42.354 8.712 43.491 10.135 46.046 10.135 L 46.046 10.267 C 45.042 10.311 43.329 10.311 42.325 10.267 Z M 37.851 0.367 L 37.851 5.251 C 38.294 5.397 38.574 5.427 39.017 5.427 C 40.464 5.427 41.646 4.473 41.646 2.831 C 41.646 1.261 40.509 0.308 38.751 0.308 C 38.456 0.308 37.88 0.367 37.851 0.367 Z M 49.555 10.252 C 50.825 10.252 51.947 9.401 51.947 8.023 C 51.947 4.781 46.336 6.439 46.336 2.992 C 46.336 1.32 47.96 0 49.777 0 C 50.944 0 51.904 0.337 52.524 0.704 L 52.229 1.203 L 52.834 3.447 L 52.731 3.52 C 52.184 1.613 51.151 0.191 49.467 0.191 C 48.256 0.191 47.356 0.953 47.356 2.185 C 47.356 5.089 53.115 3.623 53.115 7.201 C 53.115 9.049 51.313 10.413 49.349 10.413 C 48.168 10.413 46.75 10.017 46.056 9.577 L 46.381 9.108 L 45.85 6.703 L 45.938 6.629 C 46.396 8.58 47.784 10.252 49.556 10.252 Z M 64.773 5.207 C 64.773 8.125 62.262 10.413 59.575 10.413 C 56.887 10.413 54.362 8.125 54.362 5.207 C 54.362 2.288 56.887 0 59.575 0 C 62.262 0 64.773 2.288 64.773 5.207 Z M 56.075 5.207 C 56.075 7.905 57.124 10.267 59.575 10.267 C 62.011 10.267 63.074 7.905 63.074 5.207 C 63.074 2.508 62.011 0.147 59.575 0.147 C 57.124 0.147 56.075 2.508 56.075 5.207 Z M 67.41 9.049 C 67.41 9.695 67.513 10.061 69.3 10.135 L 69.3 10.267 C 68.887 10.252 68.104 10.223 67.366 10.223 C 66.627 10.223 65.741 10.252 65.328 10.267 L 65.328 10.135 C 67.115 10.061 67.188 9.695 67.188 9.049 L 67.188 1.056 C 66.583 0.411 66.214 0.323 65.298 0.264 L 65.298 0.147 C 66.878 0.147 67.809 0.147 68.399 0.117 L 74.69 8.052 L 74.69 1.364 C 74.69 0.719 74.586 0.352 72.8 0.279 L 72.8 0.147 C 73.213 0.161 73.996 0.191 74.734 0.191 C 75.472 0.191 76.358 0.161 76.772 0.147 L 76.772 0.279 C 74.985 0.352 74.911 0.719 74.911 1.364 L 74.911 10.413 L 74.867 10.413 L 67.779 1.745 C 67.646 1.584 67.528 1.437 67.41 1.305 Z M 76.381 9.445 C 76.381 8.903 76.824 8.463 77.371 8.463 C 77.917 8.463 78.345 8.903 78.345 9.445 C 78.345 9.988 77.917 10.413 77.371 10.413 C 76.824 10.413 76.381 9.988 76.381 9.445 Z" fill="rgb(255, 255, 255)"></path></svg>