<svg xmlns="http://www.w3.org/2000/svg" width="200" height="200" fill="none"><g fill="#F3CC92" clip-path="url(#a)" opacity=".5"><path d="m-105.939 120.061 226.274-226.274.622.622-226.274 226.274zm7.693 7.693L128.028-98.52l.622.622-226.274 226.274zm7.693 7.694L135.721-90.826l.623.622-226.275 226.275zm7.693 7.692L143.416-83.132l.622.622-226.274 226.274zm7.694 7.694L151.108-75.44l.622.622-226.274 226.274zm7.693 7.693L158.801-67.747l.623.622L-66.851 159.15zm7.693 7.693L166.496-60.052l.622.622-226.274 226.274zm7.694 7.694L174.188-52.36l.622.622-226.274 226.274zm7.693 7.693L181.881-44.667l.623.622L-43.771 182.23zm7.693 7.693L189.576-36.972l.622.622-226.274 226.274zm7.694 7.694L197.268-29.28l.622.622-226.274 226.274zm7.693 7.693L204.961-21.587l.623.622L-20.691 205.31zm7.693 7.693L212.656-13.892l.622.622-226.274 226.274zm7.694 7.694L220.348-6.2l.622.622L-5.304 220.696zm7.693 7.693L228.041 1.493l.622.622L2.39 228.39zm7.693 7.693L235.736 9.188l.622.622L10.083 236.083zm7.694 7.694L243.428 16.88l.622.622L17.776 243.776zm7.693 7.693L251.121 24.573l.622.622L25.47 251.47zm7.693 7.693L258.816 32.267l.622.623L33.163 259.163zm7.694 7.694L266.508 39.96l.622.622L40.856 266.856zm7.693 7.693L274.201 47.653l.622.622L48.55 274.55zm7.693 7.694L281.894 55.347l.623.622L56.242 282.244zm7.694 7.693L289.588 63.04l.622.622L63.936 289.936zm7.693 7.693L297.281 70.733l.622.622L71.63 297.63zM78.7 304.7 304.974 78.426l.623.622L79.322 305.323z"/></g><defs><clipPath id="a"><path fill="#fff" d="M0 0h200v200H0z"/></clipPath></defs></svg>